<?xml version="1.0" standalone="no"?>
<!DOCTYPE svg PUBLIC "-//W3C//DTD SVG 20010904//EN"
 "http://www.w3.org/TR/2001/REC-SVG-20010904/DTD/svg10.dtd">
<svg version="1.0" xmlns="http://www.w3.org/2000/svg"
 width="500.000000pt" height="500.000000pt" viewBox="0 0 500.000000 500.000000"
 preserveAspectRatio="xMidYMid meet">
<metadata>
Created by potrace 1.14, written by Peter Selinger 2001-2017
</metadata>
<g transform="translate(0.000000,500.000000) scale(0.100000,-0.100000)"
fill="#000000" stroke="none">
<path d="M2410 4259 c-131 -8 -322 -46 -455 -90 -220 -73 -531 -273 -701 -451
-227 -236 -386 -513 -469 -813 -48 -175 -60 -274 -59 -490 0 -287 35 -472 139
-740 96 -249 206 -416 410 -620 264 -265 509 -398 870 -471 224 -45 518 -47
732 -4 237 48 502 160 688 291 173 122 359 320 488 519 340 525 380 1296 97
1873 -129 263 -355 518 -608 686 -250 165 -611 292 -872 307 -47 3 -98 6 -115
7 -16 2 -82 0 -145 -4z m355 -244 c180 -31 366 -93 505 -168 300 -162 512
-375 658 -665 167 -331 221 -670 166 -1047 -50 -339 -195 -640 -423 -878 -202
-210 -408 -341 -672 -425 -181 -58 -244 -67 -474 -67 -180 1 -225 4 -314 23
-429 94 -748 299 -970 627 -222 326 -326 720 -292 1105 16 174 33 262 82 417
141 443 547 843 1039 1026 83 30 203 57 320 71 65 8 285 -3 375 -19z"/>
<path d="M2312 3819 c-141 -21 -334 -96 -485 -188 -233 -141 -398 -323 -521
-572 -130 -262 -182 -528 -157 -801 31 -337 160 -624 382 -853 266 -273 583
-409 950 -407 222 1 346 23 524 93 367 143 645 422 793 799 69 173 104 449 82
649 -54 512 -341 933 -785 1153 -207 103 -310 128 -550 133 -93 2 -198 -1
-233 -6z m359 -254 c298 -52 566 -222 724 -460 124 -186 192 -373 215 -595 23
-221 -13 -405 -123 -625 -62 -126 -117 -204 -203 -288 -252 -250 -627 -371
-966 -312 -169 29 -307 86 -465 191 -178 118 -289 265 -374 497 -140 377 -102
772 104 1082 69 105 131 170 247 262 259 206 567 296 841 248z"/>
<path d="M2412 3408 c-17 -40 -58 -145 -93 -233 -34 -88 -96 -243 -137 -345
-113 -283 -357 -904 -418 -1068 -20 -52 -33 -97 -29 -100 4 -4 104 -8 224 -10
l217 -4 38 119 c20 65 44 137 52 161 l16 42 208 0 208 0 16 -42 c8 -24 32 -96
53 -160 l37 -118 233 0 c222 0 233 1 233 19 0 19 -118 358 -167 481 -14 36
-56 148 -93 250 -37 102 -86 232 -108 290 -23 58 -77 202 -121 320 -44 118
-102 271 -128 340 l-48 125 -82 3 -81 3 -30 -73z m146 -956 c39 -120 72 -221
72 -225 0 -4 -65 -7 -145 -7 -113 0 -145 3 -145 13 0 7 24 85 54 173 29 87 59
183 67 212 7 28 15 52 19 52 3 0 38 -98 78 -218z"/>
</g>
</svg>
